<mxfile host="app.diagrams.net" modified="2024-04-28T12:38:24.558Z" agent="Mozilla/5.0 (Windows NT 10.0; Win64; x64) AppleWebKit/537.36 (KHTML, like Gecko) Chrome/124.0.0.0 Safari/537.36" etag="mwGpjKLQqLy7kLSNKGNl" version="24.3.1" type="google">
  <diagram name="Page-1" id="2YBvvXClWsGukQMizWep">
    <mxGraphModel grid="1" page="1" gridSize="10" guides="1" tooltips="1" connect="1" arrows="1" fold="1" pageScale="1" pageWidth="850" pageHeight="1100" math="0" shadow="0">
      <root>
        <mxCell id="0" />
        <mxCell id="1" parent="0" />
        <mxCell id="aM9ryv3xv72pqoxQDRHE-1" value=":ebook_screen" style="shape=umlLifeline;perimeter=lifelinePerimeter;whiteSpace=wrap;html=1;container=0;dropTarget=0;collapsible=0;recursiveResize=0;outlineConnect=0;portConstraint=eastwest;newEdgeStyle={&quot;edgeStyle&quot;:&quot;elbowEdgeStyle&quot;,&quot;elbow&quot;:&quot;vertical&quot;,&quot;curved&quot;:0,&quot;rounded&quot;:0};" vertex="1" parent="1">
          <mxGeometry x="40" y="40" width="100" height="720" as="geometry" />
        </mxCell>
        <mxCell id="aM9ryv3xv72pqoxQDRHE-2" value="" style="html=1;points=[];perimeter=orthogonalPerimeter;outlineConnect=0;targetShapes=umlLifeline;portConstraint=eastwest;newEdgeStyle={&quot;edgeStyle&quot;:&quot;elbowEdgeStyle&quot;,&quot;elbow&quot;:&quot;vertical&quot;,&quot;curved&quot;:0,&quot;rounded&quot;:0};" vertex="1" parent="aM9ryv3xv72pqoxQDRHE-1">
          <mxGeometry x="45" y="70" width="10" height="50" as="geometry" />
        </mxCell>
        <mxCell id="aM9ryv3xv72pqoxQDRHE-5" value=":premium" style="shape=umlLifeline;perimeter=lifelinePerimeter;whiteSpace=wrap;html=1;container=0;dropTarget=0;collapsible=0;recursiveResize=0;outlineConnect=0;portConstraint=eastwest;newEdgeStyle={&quot;edgeStyle&quot;:&quot;elbowEdgeStyle&quot;,&quot;elbow&quot;:&quot;vertical&quot;,&quot;curved&quot;:0,&quot;rounded&quot;:0};" vertex="1" parent="1">
          <mxGeometry x="190" y="40" width="100" height="720" as="geometry" />
        </mxCell>
        <mxCell id="aM9ryv3xv72pqoxQDRHE-6" value="" style="html=1;points=[];perimeter=orthogonalPerimeter;outlineConnect=0;targetShapes=umlLifeline;portConstraint=eastwest;newEdgeStyle={&quot;edgeStyle&quot;:&quot;elbowEdgeStyle&quot;,&quot;elbow&quot;:&quot;vertical&quot;,&quot;curved&quot;:0,&quot;rounded&quot;:0};" vertex="1" parent="aM9ryv3xv72pqoxQDRHE-5">
          <mxGeometry x="45" y="120" width="10" height="80" as="geometry" />
        </mxCell>
        <mxCell id="5s1VMWT9Pg7YOPtBHa0Q-1" value="Actor" style="shape=umlActor;verticalLabelPosition=bottom;verticalAlign=top;html=1;outlineConnect=0;" vertex="1" parent="1">
          <mxGeometry x="-100" y="30" width="30" height="60" as="geometry" />
        </mxCell>
        <mxCell id="5s1VMWT9Pg7YOPtBHa0Q-2" value=":cart" style="shape=umlLifeline;perimeter=lifelinePerimeter;whiteSpace=wrap;html=1;container=0;dropTarget=0;collapsible=0;recursiveResize=0;outlineConnect=0;portConstraint=eastwest;newEdgeStyle={&quot;edgeStyle&quot;:&quot;elbowEdgeStyle&quot;,&quot;elbow&quot;:&quot;vertical&quot;,&quot;curved&quot;:0,&quot;rounded&quot;:0};" vertex="1" parent="1">
          <mxGeometry x="380" y="40" width="100" height="720" as="geometry" />
        </mxCell>
        <mxCell id="5s1VMWT9Pg7YOPtBHa0Q-3" value="" style="html=1;points=[];perimeter=orthogonalPerimeter;outlineConnect=0;targetShapes=umlLifeline;portConstraint=eastwest;newEdgeStyle={&quot;edgeStyle&quot;:&quot;elbowEdgeStyle&quot;,&quot;elbow&quot;:&quot;vertical&quot;,&quot;curved&quot;:0,&quot;rounded&quot;:0};" vertex="1" parent="5s1VMWT9Pg7YOPtBHa0Q-2">
          <mxGeometry x="45" y="200" width="10" height="80" as="geometry" />
        </mxCell>
        <mxCell id="5s1VMWT9Pg7YOPtBHa0Q-21" value="" style="html=1;points=[];perimeter=orthogonalPerimeter;outlineConnect=0;targetShapes=umlLifeline;portConstraint=eastwest;newEdgeStyle={&quot;edgeStyle&quot;:&quot;elbowEdgeStyle&quot;,&quot;elbow&quot;:&quot;vertical&quot;,&quot;curved&quot;:0,&quot;rounded&quot;:0};" vertex="1" parent="5s1VMWT9Pg7YOPtBHa0Q-2">
          <mxGeometry x="45" y="400" width="10" height="80" as="geometry" />
        </mxCell>
        <mxCell id="5s1VMWT9Pg7YOPtBHa0Q-19" value="" style="edgeStyle=elbowEdgeStyle;rounded=0;orthogonalLoop=1;jettySize=auto;html=1;elbow=vertical;curved=0;" edge="1" parent="1" source="aM9ryv3xv72pqoxQDRHE-5" target="5s1VMWT9Pg7YOPtBHa0Q-17">
          <mxGeometry relative="1" as="geometry" />
        </mxCell>
        <mxCell id="5s1VMWT9Pg7YOPtBHa0Q-5" value=":order" style="shape=umlLifeline;perimeter=lifelinePerimeter;whiteSpace=wrap;html=1;container=0;dropTarget=0;collapsible=0;recursiveResize=0;outlineConnect=0;portConstraint=eastwest;newEdgeStyle={&quot;edgeStyle&quot;:&quot;elbowEdgeStyle&quot;,&quot;elbow&quot;:&quot;vertical&quot;,&quot;curved&quot;:0,&quot;rounded&quot;:0};" vertex="1" parent="1">
          <mxGeometry x="560" y="40" width="100" height="720" as="geometry" />
        </mxCell>
        <mxCell id="5s1VMWT9Pg7YOPtBHa0Q-6" value="" style="html=1;points=[];perimeter=orthogonalPerimeter;outlineConnect=0;targetShapes=umlLifeline;portConstraint=eastwest;newEdgeStyle={&quot;edgeStyle&quot;:&quot;elbowEdgeStyle&quot;,&quot;elbow&quot;:&quot;vertical&quot;,&quot;curved&quot;:0,&quot;rounded&quot;:0};" vertex="1" parent="5s1VMWT9Pg7YOPtBHa0Q-5">
          <mxGeometry x="45" y="280" width="10" height="80" as="geometry" />
        </mxCell>
        <mxCell id="5s1VMWT9Pg7YOPtBHa0Q-24" value="" style="html=1;points=[];perimeter=orthogonalPerimeter;outlineConnect=0;targetShapes=umlLifeline;portConstraint=eastwest;newEdgeStyle={&quot;edgeStyle&quot;:&quot;elbowEdgeStyle&quot;,&quot;elbow&quot;:&quot;vertical&quot;,&quot;curved&quot;:0,&quot;rounded&quot;:0};" vertex="1" parent="5s1VMWT9Pg7YOPtBHa0Q-5">
          <mxGeometry x="45" y="480" width="10" height="40" as="geometry" />
        </mxCell>
        <mxCell id="5s1VMWT9Pg7YOPtBHa0Q-8" value="" style="endArrow=none;dashed=1;html=1;rounded=0;" edge="1" parent="1" target="5s1VMWT9Pg7YOPtBHa0Q-1">
          <mxGeometry width="50" height="50" relative="1" as="geometry">
            <mxPoint x="-80" y="753.5999755859375" as="sourcePoint" />
            <mxPoint x="10" y="230" as="targetPoint" />
          </mxGeometry>
        </mxCell>
        <mxCell id="5s1VMWT9Pg7YOPtBHa0Q-9" value="" style="edgeStyle=none;orthogonalLoop=1;jettySize=auto;html=1;rounded=0;" edge="1" parent="1" target="aM9ryv3xv72pqoxQDRHE-2">
          <mxGeometry width="100" relative="1" as="geometry">
            <mxPoint x="-80" y="120" as="sourcePoint" />
            <mxPoint x="30" y="120" as="targetPoint" />
            <Array as="points" />
          </mxGeometry>
        </mxCell>
        <mxCell id="5s1VMWT9Pg7YOPtBHa0Q-10" value="prove_premium" style="text;html=1;align=center;verticalAlign=middle;resizable=0;points=[];autosize=1;strokeColor=none;fillColor=none;" vertex="1" parent="1">
          <mxGeometry x="-55" y="98" width="110" height="30" as="geometry" />
        </mxCell>
        <mxCell id="5s1VMWT9Pg7YOPtBHa0Q-11" value="" style="edgeStyle=none;orthogonalLoop=1;jettySize=auto;html=1;rounded=0;" edge="1" parent="1" source="aM9ryv3xv72pqoxQDRHE-2" target="aM9ryv3xv72pqoxQDRHE-6">
          <mxGeometry width="100" relative="1" as="geometry">
            <mxPoint x="100" y="160" as="sourcePoint" />
            <mxPoint x="200" y="160" as="targetPoint" />
            <Array as="points" />
          </mxGeometry>
        </mxCell>
        <mxCell id="5s1VMWT9Pg7YOPtBHa0Q-12" value="option_premium()" style="text;html=1;align=center;verticalAlign=middle;resizable=0;points=[];autosize=1;strokeColor=none;fillColor=none;" vertex="1" parent="1">
          <mxGeometry x="100" y="128" width="120" height="30" as="geometry" />
        </mxCell>
        <mxCell id="5s1VMWT9Pg7YOPtBHa0Q-13" value="" style="edgeStyle=none;orthogonalLoop=1;jettySize=auto;html=1;rounded=0;" edge="1" parent="1" source="aM9ryv3xv72pqoxQDRHE-6" target="5s1VMWT9Pg7YOPtBHa0Q-3">
          <mxGeometry width="100" relative="1" as="geometry">
            <mxPoint x="260" y="240" as="sourcePoint" />
            <mxPoint x="360" y="240" as="targetPoint" />
            <Array as="points" />
          </mxGeometry>
        </mxCell>
        <mxCell id="5s1VMWT9Pg7YOPtBHa0Q-14" value="display_no_ebook()" style="text;html=1;align=center;verticalAlign=middle;resizable=0;points=[];autosize=1;strokeColor=none;fillColor=none;" vertex="1" parent="1">
          <mxGeometry x="265" y="208" width="130" height="30" as="geometry" />
        </mxCell>
        <mxCell id="5s1VMWT9Pg7YOPtBHa0Q-15" value="" style="edgeStyle=none;orthogonalLoop=1;jettySize=auto;html=1;rounded=0;" edge="1" parent="1" target="5s1VMWT9Pg7YOPtBHa0Q-5">
          <mxGeometry width="100" relative="1" as="geometry">
            <mxPoint x="430" y="320" as="sourcePoint" />
            <mxPoint x="530" y="320" as="targetPoint" />
            <Array as="points" />
          </mxGeometry>
        </mxCell>
        <mxCell id="5s1VMWT9Pg7YOPtBHa0Q-16" value="place_order()" style="text;html=1;align=center;verticalAlign=middle;resizable=0;points=[];autosize=1;strokeColor=none;fillColor=none;" vertex="1" parent="1">
          <mxGeometry x="455" y="288" width="90" height="30" as="geometry" />
        </mxCell>
        <mxCell id="5s1VMWT9Pg7YOPtBHa0Q-17" value=":ready_to_read" style="shape=umlLifeline;perimeter=lifelinePerimeter;whiteSpace=wrap;html=1;container=0;dropTarget=0;collapsible=0;recursiveResize=0;outlineConnect=0;portConstraint=eastwest;newEdgeStyle={&quot;edgeStyle&quot;:&quot;elbowEdgeStyle&quot;,&quot;elbow&quot;:&quot;vertical&quot;,&quot;curved&quot;:0,&quot;rounded&quot;:0};" vertex="1" parent="1">
          <mxGeometry x="740" y="40" width="100" height="720" as="geometry" />
        </mxCell>
        <mxCell id="5s1VMWT9Pg7YOPtBHa0Q-18" value="" style="html=1;points=[];perimeter=orthogonalPerimeter;outlineConnect=0;targetShapes=umlLifeline;portConstraint=eastwest;newEdgeStyle={&quot;edgeStyle&quot;:&quot;elbowEdgeStyle&quot;,&quot;elbow&quot;:&quot;vertical&quot;,&quot;curved&quot;:0,&quot;rounded&quot;:0};" vertex="1" parent="5s1VMWT9Pg7YOPtBHa0Q-17">
          <mxGeometry x="45" y="360" width="10" height="80" as="geometry" />
        </mxCell>
        <mxCell id="5s1VMWT9Pg7YOPtBHa0Q-20" value="display_yes_ebook()" style="text;html=1;align=center;verticalAlign=middle;resizable=0;points=[];autosize=1;strokeColor=none;fillColor=none;" vertex="1" parent="1">
          <mxGeometry x="285" y="378" width="130" height="30" as="geometry" />
        </mxCell>
        <mxCell id="5s1VMWT9Pg7YOPtBHa0Q-22" value="" style="edgeStyle=none;orthogonalLoop=1;jettySize=auto;html=1;rounded=0;dashed=1;" edge="1" parent="1" source="5s1VMWT9Pg7YOPtBHa0Q-18" target="5s1VMWT9Pg7YOPtBHa0Q-2">
          <mxGeometry width="100" relative="1" as="geometry">
            <mxPoint x="630" y="440" as="sourcePoint" />
            <mxPoint x="730" y="440" as="targetPoint" />
            <Array as="points" />
          </mxGeometry>
        </mxCell>
        <mxCell id="5s1VMWT9Pg7YOPtBHa0Q-23" value="no_ebook()" style="text;html=1;align=center;verticalAlign=middle;resizable=0;points=[];autosize=1;strokeColor=none;fillColor=none;" vertex="1" parent="1">
          <mxGeometry x="520" y="420" width="80" height="30" as="geometry" />
        </mxCell>
        <mxCell id="5s1VMWT9Pg7YOPtBHa0Q-25" value="" style="edgeStyle=none;orthogonalLoop=1;jettySize=auto;html=1;rounded=0;" edge="1" parent="1">
          <mxGeometry width="100" relative="1" as="geometry">
            <mxPoint x="435.5" y="520" as="sourcePoint" />
            <mxPoint x="610" y="520" as="targetPoint" />
            <Array as="points" />
          </mxGeometry>
        </mxCell>
        <mxCell id="5s1VMWT9Pg7YOPtBHa0Q-26" value="place_order" style="text;html=1;align=center;verticalAlign=middle;resizable=0;points=[];autosize=1;strokeColor=none;fillColor=none;" vertex="1" parent="1">
          <mxGeometry x="480" y="490" width="90" height="30" as="geometry" />
        </mxCell>
        <mxCell id="SoZ62yyIeDpOxALq1gV8-1" value="" style="whiteSpace=wrap;html=1;fillColor=none;strokeColor=#B85450;" vertex="1" parent="1">
          <mxGeometry x="110" y="208" width="590" height="142" as="geometry" />
        </mxCell>
        <mxCell id="SoZ62yyIeDpOxALq1gV8-2" value="alternative" style="shape=document;whiteSpace=wrap;html=1;boundedLbl=1;fillColor=#f8cecc;strokeColor=#b85450;" vertex="1" parent="1">
          <mxGeometry x="105" y="208" width="110" height="50" as="geometry" />
        </mxCell>
        <mxCell id="SoZ62yyIeDpOxALq1gV8-3" value="no ebooks" style="text;html=1;align=center;verticalAlign=middle;resizable=0;points=[];autosize=1;strokeColor=none;fillColor=none;" vertex="1" parent="1">
          <mxGeometry x="120" y="258" width="80" height="30" as="geometry" />
        </mxCell>
        <mxCell id="f-CZihaI_sPXSxZ_Y5OT-1" value="&lt;font style=&quot;font-size: 21px;&quot;&gt;&lt;u&gt;&lt;b&gt;Sequence για&amp;nbsp;&lt;/b&gt;&lt;/u&gt;&lt;/font&gt;&lt;div style=&quot;font-size: 21px;&quot;&gt;&lt;font style=&quot;font-size: 21px;&quot;&gt;&lt;u&gt;&lt;b&gt;use case 6&lt;/b&gt;&lt;/u&gt;&lt;/font&gt;&lt;/div&gt;" style="text;html=1;align=center;verticalAlign=middle;resizable=0;points=[];autosize=1;strokeColor=none;fillColor=none;" vertex="1" parent="1">
          <mxGeometry x="-300" y="40" width="160" height="60" as="geometry" />
        </mxCell>
      </root>
    </mxGraphModel>
  </diagram>
</mxfile>
